# xmcd
# 
# Track frame offsets:
#     150
#     11817
#     20524
#     31356
#     41503
#     51260
#     61457
#     72125
#     81597
#     93472
#     105848
#     115214
#     126740
#     138117
#     147792
#     157992
#     166999
#     176262
#     188708
#     198470
#     208764
#     222918
#     234773
#     245543
#     257923
#     270461
#     282803
#     294615
#     305426
#     316360
# 
# Disc length: 4366
# 
# Revision: 1
# Processed by: cddbd v1.5.2PL0 Copyright (c) Steve Scherf et al.
# Submitted via: fre:ac v1.0.31
# 
DISCID=b4110c1e
DTITLE=Skeeter Davis - The Complete RCA Singles As and Bs 1953-62 Disc 2
DYEAR=2016
DGENRE=Country
TTITLE0=Skeeter Davis - I Forgot More Than You'll Ever Know
TTITLE1=Skeeter Davis - I Ain't A-Talkin'
TTITLE2=Skeeter Davis - Slave
TTITLE3=Skeeter Davis - Set Him Free
TTITLE4=Skeeter Davis - The Devil's Doll
TTITLE5=Skeeter Davis - Homebreaker
TTITLE6=Skeeter Davis - Give Me Death
TTITLE7=Skeeter Davis - Am I That Easy to Forget?
TTITLE8=Skeeter Davis - Wishful Thinking
TTITLE9=Skeeter Davis - (I Can't Help You) I'm Falling Too
TTITLE10=Skeeter Davis - No, Never
TTITLE11=Skeeter Davis - My Last Date (With You)
TTITLE12=Skeeter Davis - Someone Id Like To Forget
TTITLE13=Skeeter Davis - The Hand Youre Holding Now
TTITLE14=Skeeter Davis - Someday Someday
TTITLE15=Skeeter Davis - Optimistic
TTITLE16=Skeeter Davis - Blueberry Hill
TTITLE17=Skeeter Davis - Where I Ought To Be
TTITLE18=Skeeter Davis - Something Precious
TTITLE19=Skeeter Davis - The Little Music Box
TTITLE20=Skeeter Davis - The Final Step
TTITLE21=Skeeter Davis - The End Of The World
TTITLE22=Skeeter Davis - Somebody Loves You
TTITLE23=Skeeter Davis - The One You Slip Around With
TTITLE24=Skeeter Davis - Just When I Needed You
TTITLE25=Skeeter Davis - Your Cheatin' Heart
TTITLE26=Skeeter Davis - Chained to a Memory
TTITLE27=Skeeter Davis - Hell Have To Stay
TTITLE28=Skeeter Davis - Tell Tommy I Miss Him
TTITLE29=Skeeter Davis - I Really Want You To Know
EXTD=
EXTT0=
EXTT1=
EXTT2=
EXTT3=
EXTT4=
EXTT5=
EXTT6=
EXTT7=
EXTT8=
EXTT9=
EXTT10=
EXTT11=
EXTT12=
EXTT13=
EXTT14=
EXTT15=
EXTT16=
EXTT17=
EXTT18=
EXTT19=
EXTT20=
EXTT21=
EXTT22=
EXTT23=
EXTT24=
EXTT25=
EXTT26=
EXTT27=
EXTT28=
EXTT29=
PLAYORDER=
